HIERARCHY
ROOT Model
{
	OFFSET 0 0 0
	CHANNELS 6 Xposition Yposition Zposition Zrotation Xrotation Yrotation
	JOINT Model1
	{
		OFFSET 0 -2.25479 2.99384
		CHANNELS 3 Zrotation Xrotation Yrotation
		JOINT Model2
		{
			OFFSET 12.111 0 0
			CHANNELS 3 Zrotation Xrotation Yrotation
			JOINT Model3
			{
				OFFSET 11.5502 0 0
				CHANNELS 3 Zrotation Xrotation Yrotation
				JOINT Model4
				{
					OFFSET 11.781 0 0
					CHANNELS 3 Zrotation Xrotation Yrotation
					JOINT Model5
					{
						OFFSET 20.0601 0 0
						CHANNELS 3 Zrotation Xrotation Yrotation
						JOINT Model6
						{
							OFFSET 11.1962 0 0
							CHANNELS 3 Zrotation Xrotation Yrotation
							End Site
							{
								OFFSET 0 0 0
							}
						}
					}
					JOINT Model7
					{
						OFFSET 10.8223 0.417534 3.51114
						CHANNELS 3 Zrotation Xrotation Yrotation
						JOINT Model8
						{
							OFFSET -6.07944 0 0
							CHANNELS 3 Zrotation Xrotation Yrotation
							JOINT Model9
							{
								OFFSET -0.27742 10.39 -0.051239
								CHANNELS 3 Zrotation Xrotation Yrotation
								JOINT Model10
								{
									OFFSET -3.4391 -0.282043 1.86678
									CHANNELS 3 Zrotation Xrotation Yrotation
									JOINT Model11
									{
										OFFSET 13.0269 0 0
										CHANNELS 3 Zrotation Xrotation Yrotation
										JOINT Model12
										{
											OFFSET 10.8866 0 0
											CHANNELS 3 Zrotation Xrotation Yrotation
											JOINT Model13
											{
												OFFSET 16.7317 0 0
												CHANNELS 3 Zrotation Xrotation Yrotation
												JOINT Model14
												{
													OFFSET 11.8292 0 0
													CHANNELS 3 Zrotation Xrotation Yrotation
													JOINT Model15
													{
														OFFSET 4.82751 -3.73566 -0.836517
														CHANNELS 3 Zrotation Xrotation Yrotation
														JOINT Model16
														{
															OFFSET 3.75311 -0.0582886 -0.0186462
															CHANNELS 3 Zrotation Xrotation Yrotation
															JOINT Model17
															{
																OFFSET 2.88688 0.0192337 0.014801
																CHANNELS 3 Zrotation Xrotation Yrotation
																End Site
																{
																	OFFSET 0 0 0
																}
															}
														}
													}
													JOINT Model18
													{
														OFFSET 9.72197 -3.06458 0.23877
														CHANNELS 3 Zrotation Xrotation Yrotation
														JOINT Model19
														{
															OFFSET 4.61131 0 0
															CHANNELS 3 Zrotation Xrotation Yrotation
															JOINT Model20
															{
																OFFSET 2.8969 -7.62939e-006 0
																CHANNELS 3 Zrotation Xrotation Yrotation
																End Site
																{
																	OFFSET 0 0 0
																}
															}
														}
													}
													JOINT Model21
													{
														OFFSET 9.54431 -0.745064 0.588943
														CHANNELS 3 Zrotation Xrotation Yrotation
														JOINT Model22
														{
															OFFSET 5.33978 0 0
															CHANNELS 3 Zrotation Xrotation Yrotation
															JOINT Model23
															{
																OFFSET 3.03619 7.62939e-006 0
																CHANNELS 3 Zrotation Xrotation Yrotation
																End Site
																{
																	OFFSET 0 0 0
																}
															}
														}
													}
													JOINT Model24
													{
														OFFSET 9.47759 1.51286 0.485123
														CHANNELS 3 Zrotation Xrotation Yrotation
														JOINT Model25
														{
															OFFSET 4.96136 7.62939e-006 0
															CHANNELS 3 Zrotation Xrotation Yrotation
															JOINT Model26
															{
																OFFSET 2.51966 0 0
																CHANNELS 3 Zrotation Xrotation Yrotation
																End Site
																{
																	OFFSET 0 0 0
																}
															}
														}
													}
													JOINT Model27
													{
														OFFSET 9.34247 3.34117 -0.239273
														CHANNELS 3 Zrotation Xrotation Yrotation
														JOINT Model28
														{
															OFFSET 3.2826 2.28882e-005 0
															CHANNELS 3 Zrotation Xrotation Yrotation
															JOINT Model29
															{
																OFFSET 2.1292 0 0
																CHANNELS 3 Zrotation Xrotation Yrotation
																End Site
																{
																	OFFSET 0 0 0
																}
															}
														}
													}
												}
											}
										}
									}
								}
							}
						}
					}
					JOINT Model30
					{
						OFFSET 10.8223 0.4179 -3.51106
						CHANNELS 3 Zrotation Xrotation Yrotation
						JOINT Model31
						{
							OFFSET 6.07944 0 0
							CHANNELS 3 Zrotation Xrotation Yrotation
							JOINT Model32
							{
								OFFSET 0.27742 -10.39 0.051239
								CHANNELS 3 Zrotation Xrotation Yrotation
								JOINT Model33
								{
									OFFSET 3.4391 0.282043 -1.86678
									CHANNELS 3 Zrotation Xrotation Yrotation
									JOINT Model34
									{
										OFFSET -13.0269 0 0
										CHANNELS 3 Zrotation Xrotation Yrotation
										JOINT Model35
										{
											OFFSET -10.8866 0 0
											CHANNELS 3 Zrotation Xrotation Yrotation
											JOINT Model36
											{
												OFFSET -16.7317 0 0
												CHANNELS 3 Zrotation Xrotation Yrotation
												JOINT Model37
												{
													OFFSET -11.8292 0 0
													CHANNELS 3 Zrotation Xrotation Yrotation
													JOINT Model38
													{
														OFFSET -4.82751 3.73566 0.836517
														CHANNELS 3 Zrotation Xrotation Yrotation
														JOINT Model39
														{
															OFFSET -3.75311 0.0582886 0.0186462
															CHANNELS 3 Zrotation Xrotation Yrotation
															JOINT Model40
															{
																OFFSET -2.88689 -0.0192337 -0.014801
																CHANNELS 3 Zrotation Xrotation Yrotation
																End Site
																{
																	OFFSET 0 0 0
																}
															}
														}
													}
													JOINT Model41
													{
														OFFSET -9.72197 3.06459 -0.23877
														CHANNELS 3 Zrotation Xrotation Yrotation
														JOINT Model42
														{
															OFFSET -4.6113 0 0
															CHANNELS 3 Zrotation Xrotation Yrotation
															JOINT Model43
															{
																OFFSET -2.8969 0 0
																CHANNELS 3 Zrotation Xrotation Yrotation
																End Site
																{
																	OFFSET 0 0 0
																}
															}
														}
													}
													JOINT Model44
													{
														OFFSET -9.5443 0.745064 -0.588943
														CHANNELS 3 Zrotation Xrotation Yrotation
														JOINT Model45
														{
															OFFSET -5.33978 0 0
															CHANNELS 3 Zrotation Xrotation Yrotation
															JOINT Model46
															{
																OFFSET -3.03619 -1.52588e-005 0
																CHANNELS 3 Zrotation Xrotation Yrotation
																End Site
																{
																	OFFSET 0 0 0
																}
															}
														}
													}
													JOINT Model47
													{
														OFFSET -9.47758 -1.51286 -0.485123
														CHANNELS 3 Zrotation Xrotation Yrotation
														JOINT Model48
														{
															OFFSET -4.96136 -1.52588e-005 0
															CHANNELS 3 Zrotation Xrotation Yrotation
															JOINT Model49
															{
																OFFSET -2.51965 0 0
																CHANNELS 3 Zrotation Xrotation Yrotation
																End Site
																{
																	OFFSET 0 0 0
																}
															}
														}
													}
													JOINT Model50
													{
														OFFSET -9.34245 -3.34118 0.239273
														CHANNELS 3 Zrotation Xrotation Yrotation
														JOINT Model51
														{
															OFFSET -3.28259 -2.28882e-005 0
															CHANNELS 3 Zrotation Xrotation Yrotation
															JOINT Model52
															{
																OFFSET -2.1292 0 0
																CHANNELS 3 Zrotation Xrotation Yrotation
																End Site
																{
																	OFFSET 0 0 0
																}
															}
														}
													}
												}
											}
										}
									}
								}
							}
						}
					}
				}
			}
		}
	}
	JOINT Model53
	{
		OFFSET 4.38026 -2.14632 -1.11516
		CHANNELS 3 Zrotation Xrotation Yrotation
		JOINT Model54
		{
			OFFSET 0 0 4.95
			CHANNELS 3 Zrotation Xrotation Yrotation
			JOINT Model55
			{
				OFFSET 18.5642 0 0
				CHANNELS 3 Zrotation Xrotation Yrotation
				JOINT Model56
				{
					OFFSET 21.2884 0 1.52588e-005
					CHANNELS 3 Zrotation Xrotation Yrotation
					JOINT Model57
					{
						OFFSET 30.261 0 0
						CHANNELS 3 Zrotation Xrotation Yrotation
						JOINT Model58
						{
							OFFSET 11.7259 0 0
							CHANNELS 3 Zrotation Xrotation Yrotation
							JOINT Model59
							{
								OFFSET 10.682 0 0
								CHANNELS 3 Zrotation Xrotation Yrotation
								End Site
								{
									OFFSET 0 0 0
								}
							}
						}
					}
				}
			}
		}
	}
	JOINT Model60
	{
		OFFSET -4.38026 -2.14632 -1.11516
		CHANNELS 3 Zrotation Xrotation Yrotation
		JOINT Model61
		{
			OFFSET 0 0 -4.95
			CHANNELS 3 Zrotation Xrotation Yrotation
			JOINT Model62
			{
				OFFSET -18.5642 0 0
				CHANNELS 3 Zrotation Xrotation Yrotation
				JOINT Model63
				{
					OFFSET -21.2884 0 -1.52588e-005
					CHANNELS 3 Zrotation Xrotation Yrotation
					JOINT Model64
					{
						OFFSET -30.261 0 0
						CHANNELS 3 Zrotation Xrotation Yrotation
						JOINT Model65
						{
							OFFSET -11.7259 0 0
							CHANNELS 3 Zrotation Xrotation Yrotation
							JOINT Model66
							{
								OFFSET -10.682 0 0
								CHANNELS 3 Zrotation Xrotation Yrotation
								End Site
								{
									OFFSET 0 0 0
								}
							}
						}
					}
				}
			}
		}
	}
}
MOTION
Frames: 4
Frame Time: 0.033333
-52.948 165.165 -25.043 -88.5398 -2.1513 -87.5818 -180 4.29621e-031 -90 1.1536 -0.770595 -0.110378 2.30601 -1.54369 -0.205244 2.30601 -1.54325 -0.205261 8.66062 3.00714 7.96371 8.06554 4.10858 1.39925 120.092 75.5343 58.4939 -10.7624 -17.6879 -5.3631 -167.277 84.4999 48.8109 158.754 1.10398 1.7863 4.28697e-007 23.0021 3.36819e-005 -22.5012 5.10838 -5.97778 7.54462e-007 7.3064 8.26432e-007 1.8501 -0.0491452 -3.03695 -72.0648 39.0385 39.3397 33.3638 2.10362 14.835 0.588947 0.308273 6.35287 -99.6409 81.413 100.35 -0.0181409 2.77612e-005 -0.117315 -0.124139 0.0024111 -0.799296 -79.8382 79.5773 80.5374 -0.000225763 -0.000220939 2.21792e-005 -0.000956208 0.000122872 -2.73414e-005 -66.7416 80.4058 67.2171 -0.000437119 1.59283e-005 -2.73358e-005 -0.000136586 -0.000109314 -5.46619e-005 -6.42159 81.2158 8.01779 -0.00021855 1.68801e-005 0.000212128 0.000901605 -0.00018484 -0.000218583 -59.9282 75.5373 58.5147 -9.6481 -12.6276 -3.19209 -167.277 84.4999 48.8109 160.295 -12.2788 17.1376 6.84921e-006 0.152639 2.92015e-005 -1.27852 16.8447 -0.292481 -1.10814e-005 25.2999 5.70399e-006 -7.68563 0.478121 -7.11222 -72.0648 39.0385 39.3397 33.3638 2.10361 14.835 0.588946 0.308273 6.35287 -99.6409 81.413 100.35 -0.0181409 3.00843e-005 -0.117315 -0.124139 0.00241114 -0.799296 -79.8382 79.5773 80.5374 -0.000260652 -0.00021856 2.35733e-005 -0.000956234 0.000123004 -2.73168e-005 -66.7416 80.4058 67.2171 -0.000437138 1.48872e-005 -2.73176e-005 -0.000136611 -0.000109275 -5.46373e-005 -6.42159 81.2158 8.01779 -0.000218572 1.95859e-005 0.0002123 0.000901575 -0.000191236 -0.000218561 0.000811311 0.56661 89.91 -21.5505 0.15047 -1.72039 4.47731e-007 1.23284 -2.21514e-009 49.3258 -3.39341 -0.00645703 -1.56777e-007 -5.18084 -1.5162e-007 -79.4389 -0.786193 -0.969233 -35.4947 5.84874e-007 9.52348e-007 -180 -0.566579 -90.09 -22.7089 -14.5641 -12.2685 -5.77921e-006 -15.5668 -8.65488e-007 48.6032 6.42326 -0.00606804 5.59082e-007 9.54512 5.89171e-007 -75.856 10.7521 -6.09272 -35.4947 8.94073e-008 -1.11093e-008 
-53.039 165.141 -25.095 -88.7419 -2.15383 -87.6646 -180 4.29621e-031 -90 1.17368 -0.803852 -0.0694828 2.34673 -1.60939 -0.122498 2.34673 -1.60896 -0.122516 8.26133 3.24106 7.23746 8.87616 4.27195 1.98495 120.092 75.5343 58.4939 -10.1033 -18.2286 -5.60032 -167.277 84.4999 48.8109 157.288 1.34779 -2.95751 -6.24698e-008 23.7668 3.38769e-005 -21.4145 3.00691 -7.10043 7.99877e-007 4.16457 8.21892e-007 2.64519 -0.064269 -2.79796 -72.0648 39.0385 39.3397 33.3638 2.10362 14.835 0.588947 0.308273 6.35287 -99.6409 81.413 100.35 -0.0181409 2.77612e-005 -0.117315 -0.124139 0.0024111 -0.799296 -79.8382 79.5773 80.5374 -0.000225763 -0.000220939 2.21792e-005 -0.000956208 0.000122872 -2.73414e-005 -66.7416 80.4058 67.2171 -0.000437119 1.59283e-005 -2.73358e-005 -0.000136586 -0.000109314 -5.46619e-005 -6.42159 81.2158 8.01779 -0.00021855 1.68801e-005 0.000212128 0.000901605 -0.00018484 -0.000218583 -59.9282 75.5373 58.5147 -8.25324 -13.1614 -3.4842 -167.277 84.4999 48.8109 158.21 -12.8982 12.7145 6.86634e-006 0.11902 2.92015e-005 -1.32294 15.7178 -0.259547 -1.08977e-005 23.6089 5.62794e-006 -7.02553 0.40839 -6.63686 -72.0648 39.0385 39.3397 33.3638 2.10361 14.835 0.588946 0.308273 6.35287 -99.6409 81.413 100.35 -0.0181409 3.00843e-005 -0.117315 -0.124139 0.00241114 -0.799296 -79.8382 79.5773 80.5374 -0.000260652 -0.00021856 2.35733e-005 -0.000956234 0.000123004 -2.73168e-005 -66.7416 80.4058 67.2171 -0.000437138 1.48872e-005 -2.73176e-005 -0.000136611 -0.000109275 -5.46373e-005 -6.42159 81.2158 8.01779 -0.000218572 1.95859e-005 0.0002123 0.000901575 -0.000191236 -0.000218561 0.000811311 0.56661 89.91 -21.2588 0.234003 -1.605 4.47733e-007 1.3034 -2.2152e-009 49.3069 -3.48732 -0.00646811 -1.57151e-007 -5.32167 -1.51654e-007 -79.4834 -0.923587 -0.913794 -35.4947 9.9579e-007 1.82745e-006 -180 -0.566579 -90.09 -22.4919 -14.6677 -12.4045 -5.77998e-006 -15.6161 -8.65696e-007 48.7303 6.58192 -0.00606758 5.56601e-007 9.78291 5.89587e-007 -76.2163 10.8858 -6.12436 -35.4947 8.41725e-008 -7.46956e-009 
-53.149 165.118 -25.163 -88.992 -2.12817 -87.7388 -180 4.29621e-031 -90 1.18463 -0.833938 -0.0375658 2.36909 -1.66891 -0.0578888 2.36909 -1.66848 -0.0579069 8.03752 3.51487 6.84317 9.72234 4.51338 2.27301 120.092 75.5343 58.4939 -8.39559 -18.4979 -5.70671 -167.277 84.4999 48.8109 155.987 2.75432 -8.55832 -1.68542e-006 26.2298 3.45629e-005 -18.6635 -0.756623 -9.38062 8.80774e-007 -1.48216 8.19996e-007 3.24652 -0.067314 -2.36943 -72.0648 39.0385 39.3397 33.3638 2.10362 14.835 0.588947 0.308273 6.35287 -99.6409 81.413 100.35 -0.0181409 2.77612e-005 -0.117315 -0.124139 0.0024111 -0.799296 -79.8382 79.5773 80.5374 -0.000225763 -0.000220939 2.21792e-005 -0.000956208 0.000122872 -2.73414e-005 -66.7416 80.4058 67.2171 -0.000437119 1.59283e-005 -2.73358e-005 -0.000136586 -0.000109314 -5.46619e-005 -6.42159 81.2158 8.01779 -0.00021855 1.68801e-005 0.000212128 0.000901605 -0.00018484 -0.000218583 -59.9282 75.5373 58.5147 -6.48109 -13.7724 -3.81078 -167.277 84.4999 48.8109 155.578 -13.5152 6.64625 6.89034e-006 0.071934 2.92014e-005 -1.3755 14.3659 -0.222392 -1.06834e-005 21.58 5.5456e-006 -5.71584 0.309367 -6.19496 -72.0648 39.0385 39.3397 33.3638 2.10361 14.835 0.588946 0.308273 6.35287 -99.6409 81.413 100.35 -0.0181409 3.00843e-005 -0.117315 -0.124139 0.00241114 -0.799296 -79.8382 79.5773 80.5374 -0.000260652 -0.00021856 2.35733e-005 -0.000956234 0.000123004 -2.73168e-005 -66.7416 80.4058 67.2171 -0.000437138 1.48872e-005 -2.73176e-005 -0.000136611 -0.000109275 -5.46373e-005 -6.42159 81.2158 8.01779 -0.000218572 1.95859e-005 0.0002123 0.000901575 -0.000191236 -0.000218561 0.000811311 0.56661 89.91 -20.897 0.264197 -1.55393 4.47734e-007 1.32954 -2.21522e-009 49.2752 -3.56352 -0.00647942 -1.57455e-007 -5.43593 -1.51683e-007 -79.5405 -1.05796 -0.860241 -35.4947 1.78881e-006 1.21172e-006 -180 -0.566579 -90.09 -22.1919 -14.7188 -12.4623 -5.77989e-006 -15.6104 -8.65672e-007 48.8405 6.70428 -0.00606462 5.54685e-007 9.96628 5.89916e-007 -76.684 10.9447 -6.11254 -35.4947 7.74099e-008 -3.05745e-009 
-53.234 165.118 -25.226 -89.1925 -2.05552 -87.7471 -180 4.29621e-031 -90 1.16997 -0.84216 -0.0388094 2.33974 -1.68537 -0.0604209 2.33974 -1.68494 -0.0604387 8.36164 3.72517 7.32098 10.0379 4.76961 1.76871 120.092 75.5343 58.4939 -5.60556 -18.0539 -5.51206 -167.277 84.4999 48.8109 155.953 4.40337 -12.6444 -3.62658e-006 29.0442 3.54636e-005 -14.8261 -4.62857 -11.1982 9.64992e-007 -7.32886 8.26474e-007 3.4722 -0.056857 -1.86563 -72.0648 39.0385 39.3397 33.3638 2.10362 14.835 0.588947 0.308273 6.35287 -99.6409 81.413 100.35 -0.0181409 2.77612e-005 -0.117315 -0.124139 0.0024111 -0.799296 -79.8382 79.5773 80.5374 -0.000225763 -0.000220939 2.21792e-005 -0.000956208 0.000122872 -2.73414e-005 -66.7416 80.4058 67.2171 -0.000437119 1.59283e-005 -2.73358e-005 -0.000136586 -0.000109314 -5.46619e-005 -6.42159 81.2158 8.01779 -0.00021855 1.68801e-005 0.000212128 0.000901605 -0.00018484 -0.000218583 -59.9282 75.5373 58.5147 -4.96173 -14.0732 -3.98721 -167.277 84.4999 48.8109 153.679 -13.8768 0.986398 6.91436e-006 0.0248049 2.92014e-005 -1.41158 13.4292 -0.198562 -1.05385e-005 20.1742 5.49395e-006 -3.9499 0.205264 -5.95267 -72.0648 39.0385 39.3397 33.3638 2.10361 14.835 0.588946 0.308273 6.35287 -99.6409 81.413 100.35 -0.0181409 3.00843e-005 -0.117315 -0.124139 0.00241114 -0.799296 -79.8382 79.5773 80.5374 -0.000260652 -0.00021856 2.35733e-005 -0.000956234 0.000123004 -2.73168e-005 -66.7416 80.4058 67.2171 -0.000437138 1.48872e-005 -2.73176e-005 -0.000136611 -0.000109275 -5.46373e-005 -6.42159 81.2158 8.01779 -0.000218572 1.95859e-005 0.0002123 0.000901575 -0.000191236 -0.000218561 0.000811311 0.56661 89.91 -20.5874 0.212017 -1.63577 4.47733e-007 1.30287 -2.2152e-009 49.2131 -3.56962 -0.00649054 -1.57479e-007 -5.44497 -1.51685e-007 -79.5809 -1.12008 -0.836141 -35.4947 2.93163e-006 -7.8708e-007 -180 -0.566579 -90.09 -21.897 -14.6501 -12.3305 -5.7785e-006 -15.5216 -8.65298e-007 48.8226 6.68875 -0.00605801 5.54928e-007 9.94301 5.89874e-007 -76.9529 10.8932 -6.06708 -35.4947 6.92564e-008 2.07497e-009 
